<mxfile host="app.diagrams.net" modified="2023-08-25T17:14:30.517Z" agent="Mozilla/5.0 (X11; Linux x86_64; rv:109.0) Gecko/20100101 Firefox/111.0" etag="9qPKjUzCuyv0S7yimhwg" version="21.6.9" type="github">
  <diagram id="R2lEEEUBdFMjLlhIrx00" name="Page-1">
    <mxGraphModel dx="2284" dy="673" grid="1" gridSize="10" guides="1" tooltips="1" connect="1" arrows="1" fold="1" page="1" pageScale="1" pageWidth="850" pageHeight="1100" math="0" shadow="0" extFonts="Permanent Marker^https://fonts.googleapis.com/css?family=Permanent+Marker">
      <root>
        <mxCell id="0" />
        <mxCell id="1" parent="0" />
        <mxCell id="ER9kjxogeQINzJU1FZPK-2" value="ARMAZEM" style="swimlane;childLayout=stackLayout;horizontal=1;startSize=50;horizontalStack=0;rounded=1;fontSize=14;fontStyle=0;strokeWidth=2;resizeParent=0;resizeLast=1;shadow=0;dashed=0;align=center;arcSize=4;whiteSpace=wrap;html=1;" vertex="1" parent="1">
          <mxGeometry x="425" y="570" width="160" height="120" as="geometry" />
        </mxCell>
        <mxCell id="ER9kjxogeQINzJU1FZPK-3" value="&lt;div&gt;CODIGO&lt;/div&gt;&lt;div&gt;ENDEREÇO&lt;br&gt;&lt;/div&gt;" style="align=left;strokeColor=none;fillColor=none;spacingLeft=4;fontSize=12;verticalAlign=top;resizable=0;rotatable=0;part=1;html=1;" vertex="1" parent="ER9kjxogeQINzJU1FZPK-2">
          <mxGeometry y="50" width="160" height="70" as="geometry" />
        </mxCell>
        <mxCell id="ER9kjxogeQINzJU1FZPK-4" value="PEÇA" style="swimlane;childLayout=stackLayout;horizontal=1;startSize=50;horizontalStack=0;rounded=1;fontSize=14;fontStyle=0;strokeWidth=2;resizeParent=0;resizeLast=1;shadow=0;dashed=0;align=center;arcSize=4;whiteSpace=wrap;html=1;" vertex="1" parent="1">
          <mxGeometry x="-80" y="560" width="160" height="120" as="geometry" />
        </mxCell>
        <mxCell id="ER9kjxogeQINzJU1FZPK-5" value="&lt;div&gt;CODIGO; DESCRIÇÃO&lt;/div&gt;&lt;div&gt;PREÇO; Q.EM ESTOQUE&lt;/div&gt;&lt;div&gt;NU.DO.ARAMAZEM&lt;br&gt;&lt;/div&gt;" style="align=left;strokeColor=none;fillColor=none;spacingLeft=4;fontSize=12;verticalAlign=top;resizable=0;rotatable=0;part=1;html=1;" vertex="1" parent="ER9kjxogeQINzJU1FZPK-4">
          <mxGeometry y="50" width="160" height="70" as="geometry" />
        </mxCell>
        <mxCell id="ER9kjxogeQINzJU1FZPK-6" value="CLIENTE" style="swimlane;childLayout=stackLayout;horizontal=1;startSize=50;horizontalStack=0;rounded=1;fontSize=14;fontStyle=0;strokeWidth=2;resizeParent=0;resizeLast=1;shadow=0;dashed=0;align=center;arcSize=4;whiteSpace=wrap;html=1;" vertex="1" parent="1">
          <mxGeometry x="650" y="90" width="160" height="160" as="geometry" />
        </mxCell>
        <mxCell id="ER9kjxogeQINzJU1FZPK-7" value="&lt;div&gt;CODIGO&lt;/div&gt;&lt;div&gt;NOME ENDEREÇO&lt;/div&gt;&lt;div&gt;FATURAMENTO.A&lt;/div&gt;&lt;div&gt;CODIGO.V/NOME.V&lt;/div&gt;&lt;div&gt;LIMITECREDITO&lt;br&gt;&lt;/div&gt;" style="align=left;strokeColor=none;fillColor=none;spacingLeft=4;fontSize=12;verticalAlign=top;resizable=0;rotatable=0;part=1;html=1;" vertex="1" parent="ER9kjxogeQINzJU1FZPK-6">
          <mxGeometry y="50" width="160" height="110" as="geometry" />
        </mxCell>
        <mxCell id="ER9kjxogeQINzJU1FZPK-8" value="VENDEDOR" style="swimlane;childLayout=stackLayout;horizontal=1;startSize=50;horizontalStack=0;rounded=1;fontSize=14;fontStyle=0;strokeWidth=2;resizeParent=0;resizeLast=1;shadow=0;dashed=0;align=center;arcSize=4;whiteSpace=wrap;html=1;" vertex="1" parent="1">
          <mxGeometry x="-60" y="80" width="160" height="120" as="geometry" />
        </mxCell>
        <mxCell id="ER9kjxogeQINzJU1FZPK-9" value="&lt;div&gt;CODIGO&lt;/div&gt;&lt;div&gt;NOME&lt;/div&gt;&lt;div&gt;ENDEREÇO&lt;/div&gt;&lt;div&gt;COMISSÃO&lt;br&gt;&lt;/div&gt;" style="align=left;strokeColor=none;fillColor=none;spacingLeft=4;fontSize=12;verticalAlign=top;resizable=0;rotatable=0;part=1;html=1;" vertex="1" parent="ER9kjxogeQINzJU1FZPK-8">
          <mxGeometry y="50" width="160" height="70" as="geometry" />
        </mxCell>
        <mxCell id="ER9kjxogeQINzJU1FZPK-16" style="edgeStyle=orthogonalEdgeStyle;rounded=0;orthogonalLoop=1;jettySize=auto;html=1;exitX=1;exitY=0.5;exitDx=0;exitDy=0;entryX=0;entryY=0.5;entryDx=0;entryDy=0;" edge="1" parent="1" source="ER9kjxogeQINzJU1FZPK-10" target="ER9kjxogeQINzJU1FZPK-2">
          <mxGeometry relative="1" as="geometry" />
        </mxCell>
        <mxCell id="ER9kjxogeQINzJU1FZPK-10" value="ARMAZENA" style="shape=rhombus;perimeter=rhombusPerimeter;whiteSpace=wrap;html=1;align=center;" vertex="1" parent="1">
          <mxGeometry x="185" y="590" width="120" height="60" as="geometry" />
        </mxCell>
        <mxCell id="ER9kjxogeQINzJU1FZPK-12" style="edgeStyle=orthogonalEdgeStyle;rounded=0;orthogonalLoop=1;jettySize=auto;html=1;exitX=0;exitY=0.5;exitDx=0;exitDy=0;entryX=1.013;entryY=0.129;entryDx=0;entryDy=0;entryPerimeter=0;" edge="1" parent="1" source="ER9kjxogeQINzJU1FZPK-11" target="ER9kjxogeQINzJU1FZPK-9">
          <mxGeometry relative="1" as="geometry" />
        </mxCell>
        <mxCell id="ER9kjxogeQINzJU1FZPK-13" style="edgeStyle=orthogonalEdgeStyle;rounded=0;orthogonalLoop=1;jettySize=auto;html=1;exitX=1;exitY=0.5;exitDx=0;exitDy=0;entryX=0;entryY=0.25;entryDx=0;entryDy=0;" edge="1" parent="1" source="ER9kjxogeQINzJU1FZPK-11" target="ER9kjxogeQINzJU1FZPK-7">
          <mxGeometry relative="1" as="geometry" />
        </mxCell>
        <mxCell id="ER9kjxogeQINzJU1FZPK-14" style="edgeStyle=orthogonalEdgeStyle;rounded=0;orthogonalLoop=1;jettySize=auto;html=1;exitX=0.5;exitY=1;exitDx=0;exitDy=0;entryX=0.5;entryY=0;entryDx=0;entryDy=0;" edge="1" parent="1" source="ER9kjxogeQINzJU1FZPK-11" target="ER9kjxogeQINzJU1FZPK-4">
          <mxGeometry relative="1" as="geometry" />
        </mxCell>
        <mxCell id="ER9kjxogeQINzJU1FZPK-11" value="VENDE" style="shape=rhombus;perimeter=rhombusPerimeter;whiteSpace=wrap;html=1;align=center;" vertex="1" parent="1">
          <mxGeometry x="305" y="110" width="120" height="60" as="geometry" />
        </mxCell>
        <mxCell id="ER9kjxogeQINzJU1FZPK-15" style="edgeStyle=orthogonalEdgeStyle;rounded=0;orthogonalLoop=1;jettySize=auto;html=1;exitX=1;exitY=0.25;exitDx=0;exitDy=0;" edge="1" parent="1" source="ER9kjxogeQINzJU1FZPK-5" target="ER9kjxogeQINzJU1FZPK-10">
          <mxGeometry relative="1" as="geometry" />
        </mxCell>
        <mxCell id="ER9kjxogeQINzJU1FZPK-20" value="1" style="resizable=0;html=1;whiteSpace=wrap;align=left;verticalAlign=bottom;" connectable="0" vertex="1" parent="1">
          <mxGeometry x="110" y="170" as="geometry" />
        </mxCell>
        <mxCell id="ER9kjxogeQINzJU1FZPK-21" value="N" style="resizable=0;html=1;whiteSpace=wrap;align=left;verticalAlign=bottom;" connectable="0" vertex="1" parent="1">
          <mxGeometry x="630" y="160" as="geometry" />
        </mxCell>
        <mxCell id="ER9kjxogeQINzJU1FZPK-22" value="1" style="resizable=0;html=1;whiteSpace=wrap;align=left;verticalAlign=bottom;" connectable="0" vertex="1" parent="1">
          <mxGeometry x="630" y="200" as="geometry" />
        </mxCell>
        <mxCell id="ER9kjxogeQINzJU1FZPK-23" value="N" style="resizable=0;html=1;whiteSpace=wrap;align=left;verticalAlign=bottom;" connectable="0" vertex="1" parent="1">
          <mxGeometry x="10" y="550" as="geometry" />
        </mxCell>
        <mxCell id="ER9kjxogeQINzJU1FZPK-24" value="1" style="resizable=0;html=1;whiteSpace=wrap;align=left;verticalAlign=bottom;" connectable="0" vertex="1" parent="1">
          <mxGeometry x="90" y="620" as="geometry" />
        </mxCell>
        <mxCell id="ER9kjxogeQINzJU1FZPK-25" value="1" style="resizable=0;html=1;whiteSpace=wrap;align=left;verticalAlign=bottom;" connectable="0" vertex="1" parent="1">
          <mxGeometry x="400" y="620" as="geometry" />
        </mxCell>
        <mxCell id="ER9kjxogeQINzJU1FZPK-29" value="M" style="resizable=0;html=1;whiteSpace=wrap;align=left;verticalAlign=bottom;" connectable="0" vertex="1" parent="1">
          <mxGeometry x="560" y="550" as="geometry" />
        </mxCell>
      </root>
    </mxGraphModel>
  </diagram>
</mxfile>
